<svg clip-rule="evenodd" fill-rule="evenodd" stroke-linejoin="round" stroke-miterlimit="2" viewBox="0 0 649 649" xmlns="http://www.w3.org/2000/svg"><ellipse cx="353" cy="326" fill="#180202" rx="286" ry="289" transform="matrix(1.090909 0 0 1.083045 -60.590909 -24.072664)"/><ellipse cx="353" cy="326" fill="#bcacd0" rx="286" ry="289" transform="matrix(.952797 0 0 .942907 -11.837413 17.112457)"/><g fill-rule="nonzero"><path d="m-2 623c-111.135-9.977-173.733-73.975-166-82 .499-1.214 1.998-5.429 2.512-6.68 16.791-40.321 39.06-77.653 65.543-112.32 24.033-29.553 24.033-29.553 34.246-64.992-.346-2.312-1.16-3.981-2.301-6.008-.459.361-.918.722-1.391 1.094-.613.464-1.227.928-1.859 1.406-.905.696-.905.696-1.828 1.406-1.922 1.094-1.922 1.094-5.922 1.094-4.147-9.572-6.381-18.746-8-29-2.97 1.65-5.94 3.3-9 5-.409-17.451.359-32.393 7.018-48.724 1.373-3.389 1.982-5.548 1.982-9.276-1.016-.026-2.032-.052-3.078-.078-13.523-.493-26.02-2.894-35.891-12.922-7.576-8.988-9.576-19.5-11.093-30.875-.294-2.186-.597-4.371-.911-6.555-.126-.951-.252-1.902-.383-2.882-.961-4.01-2.395-6.804-5.793-9.209-1.851-1.479-1.851-1.479-2.397-3.656-.031-1.233-.031-1.233-.063-2.491-.033-.893-.065-1.785-.098-2.705-.014-.929-.028-1.858-.043-2.815-.03-.94-.059-1.88-.09-2.849-.071-2.321-.123-4.641-.16-6.963 1.021-.073 1.021-.073 2.062-.148 5.804-.448 11.547-1.055 17.313-1.852 14.41-1.917 29.101-2.247 43.625-2 .804-1.609.804-1.609 1.625-3.25.369-.731.737-1.462 1.117-2.215.88-1.774 1.738-3.559 2.578-5.351 14.534-30.458 42.627-50.723 73.66-62.164 9.373-3.304 19.008-6.355 29.02-6.02v3c.844-.072 1.689-.144 2.559-.219 25.508-1.849 51.302-1.924 76.441 3.219v2c-4.95 2.64-9.9 5.28-15 8 2.897 1.931 4.935 2.688 8.242 3.629 1.584.462 1.584.462 3.199.933 1.133.33 2.266.66 3.434 1 30.173 9.068 56.932 23.262 81.125 43.438 1.067.849 1.067.849 2.156 1.715 1.674 1.358 3.269 2.813 4.844 4.285v3c-8.415 1.98-8.415 1.98-17 4 2.182 7.074 11.436 20.642 17 22.75 3.541 1.963 14.863 11.188 22 20.25 2.855 3.625 4.406 13.691-6 7-2.664-4.228-14.562-14.735-17-14 3.086 4.914 6.18 9.816 9.445 14.613 14.065 20.68 14.065 20.68 15.555 28.387h-8c.252.527.503 1.055.763 1.598 6.01 12.692 10.48 24.615 13.237 38.402-4.95-1.485-4.95-1.485-10-3 .193.779.387 1.557.586 2.359 2.449 10.523 3.456 20.881 4.414 31.641-5.61-2.31-11.22-4.62-17-7-1.546 3.093-.178 5.821.695 9.008.388 1.464.776 2.928 1.164 4.392.207.77.413 1.541.627 2.335 1.074 4.015 2.117 8.038 3.159 12.062.206.799.413 1.599.626 2.422 6.24 24.234 11.272 49.694 11.729 74.781.02 1.052.041 2.105.062 3.189.727 44.702-14.519 100.471-34.062 140.811.263 0-23.055 37.247-161.706 45.945-4.962.312-15.87.722-23.294.055z" fill="#060605" transform="translate(298 3.5)"/><path d="m0 0c.814.041 1.628.083 2.467.125 2.663.139 5.324.294 7.986.453 2.776.161 5.552.322 8.328.482 1.881.109 3.762.219 5.643.331 5.23.302 10.448.514 15.685.598 2.998.049 5.993.137 8.99.228 1.386.032 2.774.046 4.161.04 5.94-.018 10.598-.024 15.221 3.973 2.29 2.771 4.277 5.579 6.222 8.598 1.092 1.427 2.193 2.846 3.313 4.25 6.687 9.053 7.007 9.75 8.687 12.75.33 1.98.66 3.96 1 6-2.64.33-5.28.66-8 1 .348.605.696 1.21 1.054 1.833 1.588 2.763 3.173 5.527 4.759 8.292.547.951 1.094 1.903 1.658 2.883 7.529 13.142 7.529 13.142 7.529 16.992-3.964-.553-7.316-1.456-11-3 .459 1.114.918 2.228 1.391 3.375 9.609 23.745 9.609 23.745 9.609 33.625-4.819-.448-9.146-1.597-13.769-3.047-1.168-.364-2.336-.729-3.539-1.104-.888-.28-1.777-.56-2.692-.849 1.223 5.606 2.453 11.21 3.688 16.813.183.834.367 1.668.556 2.527.554 2.51 1.112 5.019 1.67 7.527.17.77.339 1.539.514 2.332 1.22 5.46 2.638 10.849 4.135 16.239 8.489 31.188 14.087 65.183 12.437 97.562-.042.895-.085 1.79-.129 2.712-2.101 39.853-14.316 77.418-34.808 111.601-.437.729-.873 1.458-1.322 2.21-4.942 7.905-11.356 10.967-19.678 14.727-1.596.724-1.596.724-3.224 1.462-26.387 11.785-53.318 18.89-81.839 23.288-1.269.201-1.269.201-2.564.407-31.156 4.72-79.798 6.912-108.436-7.407.588-3.325 1.613-4.957 3.938-7.375 18.962-20.975 34.088-48.622 42.062-75.625.228-.761.455-1.522.69-2.307 6.917-23.526 7.889-45.665 2.31-69.693-.004.596-.008 1.192-.012 1.807-.508 42.697-15.262 82.547-39.988 117.193-.728 1.024-1.457 2.047-2.207 3.102-5.037 6.879-10.497 13.345-16.094 19.769-2.307 2.653-4.524 5.366-6.699 8.129-11.931-2.277-22.847-7.317-34-12-1.323-.54-1.323-.54-2.674-1.092-18.583-7.665-34.904-19.477-51.326-30.908-.642-.44-1.285-.88-1.947-1.333-6.273-4.357-6.273-4.357-7.053-8.667.539-2.797.539-2.797 1.625-5.75.514-1.446.514-1.446 1.039-2.922 3.835-9.553 8.463-18.701 13.086-27.89.705-1.405 1.409-2.809 2.113-4.213 1.711-3.41 6.457-10.225 7.137-10.225.41-1.059.41-1.059.828-2.14 3.102-7.569 6.869-14.66 11.531-21.372 2.803-4.25 5.229-8.714 7.711-13.156 1.874-3.234 3.724-6.316 5.93-9.332h2c.248-.722.495-1.444.75-2.187 1.372-3.088 3.128-5.191 5.25-7.813.687-1.155 1.353-2.322 2-3.5 1.725-3.103 3.601-5.861 6-8.5h2c.137-.855.137-.855.277-1.726.906-2.848 3.323-4.399 4.286-6.649 3.728-4.521 6.677-9.259 9.497-14.369 2.094-3.793 4.312-7.448 6.69-11.068 2.944-4.586 5.339-9.085 7.25-14.188.373-.987.745-1.975 1.129-2.992 5.131-14.911 4.036-29.44 4.121-28.633.294 1.027 2.854-2.756 4.102-4.151.33-.37.569-1.502.648-1.224.358 1.252 3.789 4.805 5 6 1.465 1.445 1.465 1.445 2.938 3.125 5.794 6.008 13.578 10.288 21.062 13.875-.072-.753-.144-1.506-.219-2.281-.78-8.932-.884-17.764-.781-26.719 1.957.161 1.957.161 3.953.324 12.156.88 26.183 4.552 35.047-4.324 11.507-11.522 3.224-29.671-1-42-2.264-3.305-3.725-4.846-7.25-6.812-2.75-2.188 9.91-1.868 10.25-1.188 2.197.934-2.566-4.226-.312-3.437 1.22.434 2.441.868 3.699 1.316 15.032 4.664 29.708 3.01 43.613-3.879 3.031-1.724 5.496-3.581 8-6 .673-.622 1.346-1.245 2.039-1.887 10.52-10.657 12.883-23.968 15.138-38.226.181-1.089.363-2.179.55-3.301.225-1.469.225-1.469.455-2.967 1.257-4.026 3.44-5.84 7.05-7.88 3.739-.998 7.245-.805 11.065-.567z" fill="#879f65" transform="translate(407.296875 218.671875)"/><path d="m0 0v3c-2.406 1.789-2.406 1.789-5.5 3.625-1.846 1.105-3.683 2.224-5.5 3.375v1c1.249.147 2.498.294 3.785.445 19.239 2.417 37.386 6.935 55.215 14.555 2.164.798 4.331 1.59 6.5 2.375 6.44 2.445 17.405 12.688 20.5 13.625 0 .66 10.531 5.072 15 9 .99 1.98 6.99 2.98 8 5h-22v2c.544.226 1.088.451 1.648.684 3.059 1.712 5.448 3.986 7.977 6.378 1.067.994 2.135 1.988 3.203 2.981.532.497 1.064.994 1.611 1.505 5.713 5.314 11.515 10.52 17.561 15.452-2.981.905-5.205 1.025-8.281.582-.831-.118-1.663-.236-2.519-.357-.891-.136-1.782-.272-2.7-.413-.934-.138-1.868-.276-2.831-.418-7.019-1.068-13.967-2.393-20.917-3.838-9.58-1.975-19.229-3.523-28.883-5.088-2.934-.479-5.867-.966-8.799-1.456-6.229-1.04-12.461-2.065-18.695-3.074-1.054-.174-2.109-.347-3.195-.526-11.963-1.932-23.638-2.649-35.742-2.662-1.133-.002-1.133-.002-2.289-.004-14.169.005-27.548-.441-40.149 6.254-6.656 3.537-8.038 6.59-8.038 6.59s-1.755.116-2.239.14c-8.807.445-8.322.527-12.93.536-.684.002-1.368.003-2.073.005-1.444.002-2.887-.002-4.33-.01-2.185-.011-4.37 0-6.556.012-9.256.01-16.746-.341-24.834-5.273-4.902-1.93-9.763-3.329-15-4 .717-3.232 1.813-6.187 3.062-9.25.363-.892.725-1.784 1.098-2.703.277-.676.554-1.351.84-2.047h2c.106-.553.211-1.106.32-1.676.818-2.796 2.068-5.008 3.555-7.512.513-.88 1.026-1.76 1.555-2.667 1.57-2.145 1.57-2.145 4.57-3.145.441-1.129 2.441-.129 2.891-1.281 1.37-3.359 1.122-5.863 3.859-8.219.892-.772 1.784-1.544 2.703-2.34.841-.713 1.681-1.426 2.547-2.16.634-.558 1.268-1.116 1.922-1.691 3.808-3.309 3.808-3.309 6.078-3.309 0-.66 8.257-7.711 14-9v-2c5.625-3 5.625-3 9-3v4h-2c-.66 1.65-1.32 3.3-2 5 1.65-.66 3.3-1.32 5-2v-2c25.253-13.963 53.802-15.467 82-15z" fill="#869f64" transform="translate(367 121.5)"/><path d="m0 0c.925.003 1.85.007 2.803.01 9.037.143 18.543.779 26.072 6.302v3c-3.877 1.193-6.916 2-11 2v2c.736.122 1.472.243 2.23.368 7.337 1.676 15.009 6.834 19.77 12.632v4c-1.139.091-1.139.091-2.301.184-.994.084-1.988.168-3.012.254-.986.081-1.972.162-2.988.246-2.793.235-2.793.235-5.699 1.316.825.475 1.65.949 2.5 1.438 6.671 4.468 12.133 10.871 14.5 18.562.187 2.938.187 2.938 0 5-1.279-.164-2.557-.329-3.875-.5-5.053-.57-10.046-.595-15.125-.5.375.45.75.9 1.137 1.364 7.439 9.351 9.762 16.527 10.863 28.636-10.56-.329-21.12-.659-32-1 5.036 8.192 5.036 8.192 8.375 11.376.536.536 1.072 1.072 1.625 1.624v3c-11.119 4.491-23.566 4.267-35 1 .433.76.866 1.519 1.313 2.301.556.994 1.113 1.988 1.687 3.012.557.986 1.114 1.972 1.687 2.988 1.313 2.699 1.313 2.699 1.313 5.699-15.356 1.266-26.578-4.398-38-14v10c-8.829-.187-14.311-6.046-20.187-12.124-8.71-10.239-11.078-21.773-12.262-34.758-.082-.874-.163-1.747-.247-2.647-.157-1.725-.301-3.451-.432-5.178-.857-10.136-1.857-10.136-7.134-18.421-.8-.473-6.587-4.303-6.324-7.082.023-2.227.023-2.227.586-5.79 1.437 2.376 10.434 4.774 12.687 5.563 1.221.434 2.442.869 3.7 1.316 15.032 4.665 29.708 3.011 43.613-3.879 3.03-1.723 5.502-3.575 8-6 .673-.645 1.346-1.291 2.039-1.957 4.831-5.02 7.664-10.078 10.246-16.539 1.927-2.812 3.321-3.521 6.63-4.232 4.072-.53 8.107-.609 12.21-.584z" fill="#efeacf" transform="translate(402.125 250.1875)"/><path d="m0 0c1.976 1.447 12.383 7.053 15.754 18.961 3.61 9.569 3.205 20.772-.77 30.152-5.672 10.94-14.38 18.22-26.05 22.008-10.902 2.065-21.866.818-31.411-4.902-8.935-6.242-15.731-14.806-17.796-25.68-.643-10.507.095-19.554 5-29 .66 0 5.341-13.058 23.789-16.578 10.816-2.064 22.143-.964 31.484 5.039z" fill="#fb6c13" transform="translate(356.273438 203.960938)"/><path d="m0 0c0 .66-.606-.098 0 0 5.028 1.611 9.878 8.978 12.34 13.414 3.872 9.123 4.448 20.522 1.222 29.961-4.567 9.503-11.834 15.85-21.562 19.625-8.695 2.898-19.222 1.737-27.375-2.125-.536-.289-4.625-2.875-4.625-2.875-8.347-8.224-13.315-16.178-13.5-27.938.172-10.963 3.462-17.938 10.984-25.859 11.99-10.5 28.59-10.812 42.516-4.203z" fill="#04a4e4" transform="translate(223 203.5)"/><path d="m0 0h9v2c.864.367.864.367 1.746.742 2.614 1.459 4.249 3.226 6.316 5.383 3.478 3.147 5.592 4.431 10.313 4.437 1.879-.137 3.755-.326 5.625-.562 1.999-.236 3.999-.466 6-.688.887-.127 1.774-.255 2.688-.386 2.312.074 2.312.074 4.062 1.367 3.339 4.56 2.727 10.341 2.25 15.707-2.615 11.859-9.985 20.498-19.02 28.18-9.09 8.355-8.313 21.818-8.832 33.234-.073 1.775-.073 1.775-.148 3.586-5.244-4.281-9.69-8.786-14-14-.808-.907-.808-.907-1.633-1.832-4.214-5.03-5.892-10.212-7.605-16.508-.501-2.56-.501-2.56-1.762-3.66-2.177-7.605-2.384-15.266-2.375-23.125-.001-1.183-.001-2.367-.002-3.586.121-9.68.973-19.482 5.377-28.289h2z" fill="#353535" transform="translate(246 258.5)"/><path d="m0 0c-.072.839-.144 1.678-.219 2.543-.599 7.763-.889 15.483-.906 23.269-.005.859-.009 1.717-.014 2.601.032 13.609 1.815 25.321 8.834 37.177 1.182 2.183 5.79 8.905 7.305 11.41 5.069 14.672 2.394 29.588-4.073 43.271-8.847 18.114-20.336 34.306-31.927 50.729-10.932 15.519-21.649 31.14-31.831 47.163-.809 1.272-1.622 2.542-2.436 3.811-5.432 8.468-19.932 34.554-21.483 37.467-.526.996-1.052 1.992-1.594 3.018-.82 1.536-.82 1.536-1.656 3.103-1.086 2.042-2.169 4.085-3.25 6.129-.48.9-3.709 10.391-3.75 11.309-.125 2.812-4.125 5.812-5-2-1.205-6.667 9.396-24.222 15.812-36.812.701-1.386 1.401-2.772 2.1-4.159 1.69-3.346 14.785-26.829 19.447-33.541 2.803-4.25 5.228-8.714 7.711-13.156 1.874-3.235 3.724-6.316 5.93-9.332.66 0 13.601-19.361 16-22 .66-1 5.132-6.641 6.562-8.375 3.729-4.521 6.677-9.259 9.498-14.369 2.094-3.793 4.312-7.448 6.69-11.068 2.943-4.586 5.339-9.086 7.25-14.188.373-.987.745-1.975 1.129-2.992 5.131-14.912 2.7-26.725-3.129-41.008-3.628 1.866-7.444 6.438-8 7-.468.473-2.462 2-3 0-3.179-7.207-3.131-14.136-3.062-21.875.004-.975.009-1.949.013-2.953.012-2.391.03-4.781.049-7.172-2.97.99-5.94 1.98-9 3 .608-11.244 3.665-21.359 7.438-31.91.627-2.331.686-4.431.75-6.84.226-2.877.443-3.893 2.542-5.926 3.246-2.098 5.354-3.324 9.27-3.324z" fill="#e4e0c6" transform="translate(232 268.5)"/><path d="m0 0c4.256 1.419 5.352 4.555 7.5 8.25 6.355 10.539 13.722 20.145 23.5 27.75-.33-.66-.66-1.32-1-2-1.287-3.861-1.138-6.942-1-11 4.946.545 8.863 2.147 13.188 4.5.654.355 1.309.711 1.984 1.077 10.189 5.699 18.046 12.938 24.828 22.423.494.668.987 1.335 1.496 2.023 6.554 9.53 6.948 19.72 6.504 30.977h-3c-.329-.632-.657-1.263-.996-1.914-8.996-16.919-19.926-32.087-33.004-46.086-.33 5.94-.66 11.88-1 18-7.877-1.125-7.877-1.125-10.422-3.18-.55-.434-1.101-.869-1.668-1.316-.548-.455-1.096-.91-1.66-1.379-.845-.671-.845-.671-1.707-1.355-5.609-4.496-10.119-9.629-10.543-9.77-7.861-10.311-13.557-22.941-14-36z" fill="#eeeace" transform="translate(330 421.5)"/><path d="m0 0v3c-2.757 2.67-4.747 3.372-8.535 3.406-1.323.03-1.323.03-2.672.06-.942.011-1.885.022-2.855.034-26.747.819-55.427 6.414-76.922 23.25-2.016 1.25-1.016 1.25-5.016 1.25v-5c-14.19 10.43-25.502 20.618-34.59 35.98-.465.667-.931 1.333-1.41 2.02-.66 0-4 6.64-5 9-2.31 0-3.62-1-6-1 .717-3.232 1.813-6.187 3.062-9.25.363-.892.725-1.784 1.098-2.703.277-.676.554-1.351.84-2.047.66 0 4.388-6.684 5.875-9.188.513-.88 1.026-1.76 1.555-2.667 1.57-2.145 8.583-10.289 11.32-12.645.892-.772 1.784-1.544 2.703-2.34.841-.713 1.681-1.426 2.547-2.16.634-.558 1.268-1.116 1.922-1.691 3.808-3.309 12.078-9.629 20.078-14.309 5.625-3 5.625-3 9-3v4c.34 1 0 .68 1 1 25.253-13.963 53.802-15.467 82-15z" fill="#e0ddc2" transform="translate(367 121.5)"/><path d="m0 0c1.513.637 10.304 5.532 12.688 12.562.433 1.135.866 2.269 1.312 3.438.392.701.784 1.402 1.188 2.125 7.451 13.334-11.83 10.716-17.188 9.875-2.325-1.628-4.046-3.024-6-5-.949-.887-1.898-1.774-2.875-2.688-2.125-2.312-9.55-5.302-17.125-6.312 0-5.665.08-7.468 3-12 7.212-5.363 16.879-5.42 25-2z" fill="#e1dcc3" transform="translate(273 235.5)"/><path d="m5 0c19.948.323 34.391 4.988 53 12 .815.303 1.629.606 2.468.918 10.275 3.857 20.089 8.14 29.661 13.516 2.817 1.646 19.5 10.575 23.871 14.566 1 .99 2 1.98 2 4-5.473.444-9.855-2.699-13.852-4.766-1.099-.56-2.252-1.026-3.332-1.699-57.135-35.589-94.188-30.901-100.816-31.535.875-4.75 5.875-4.75 7-7z" fill="#e3e0c4" transform="translate(350 132.5)"/><path d="m0 0 4 1c1.684 6.589 2.311 12.587 2.25 19.375.008.888.015 1.776.023 2.691-.002.852-.005 1.705-.007 2.582-.003.765-.005 1.53-.007 2.318-.259 2.034-.259 2.034-2.259 5.034-8.301 3.505-18.296 2.619-27 1-.083-3.985.091-6.023 2.859-9 1.588-1.364 3.189-2.712 4.801-4.047 6.928-5.783 10.999-13.131 15.34-20.953z" fill="#343434" transform="translate(301 296.5)"/><path d="m0 0h4c.74 12.839-1.106 23.771-5 36-.299.99-.598 1.98-.906 3-3.203 9.252-9.913 18.546-18.094 24h-3c.867-6.356 1.93-12.676 3-19l3-1c1.015-1.686 1.015-1.686 2-4 .654-1.175 1.318-2.345 1.988-3.512 6.385-11.379 10.619-22.627 13.012-35.488z" fill="#ece8cc" transform="translate(455 438.5)"/><path d="m0 0c4.101 4.101 4.124 10.186 4.23 15.715-.003 2.074-.018 4.148-.042 6.223-.001 1.033-.002 2.066-.002 3.13-.084 14.717-1.874 28.04-11.686 39.717-1.5 1.215-1.5 1.215-4.5 1.215-.745-6.373-1.103-12.583-1-19h2c5.745-13.804 8.796-27.698 9.754-42.602.246-2.398.246-2.398 1.246-4.398z" fill="#ede9ce" transform="translate(478 400.5)"/><path d="m-1 0c1-.66 6.28 0 9 0-.598 4.465-1.778 8.258-3.438 12.438-6.579 18.065-6.128 38.275-.562 56.562v4c-1.863-.59-1.863-.59-4-2-1.23-3.004-3.443-8.559-5-14-2.177-7.605-2.384-15.266-2.375-23.125-.001-1.183-.001-2.367-.002-3.586.121-9.68.973-19.482 5.377-28.289.287-.574.32-2 1-2z" fill="#dedac2" transform="translate(246 258.5)"/><path d="m0 0c3.575 1.192 3.861 1.994 5.75 5.125 3.143 4.918 12.91 12.555 13.25 11.875.99 0 1.98-1 3-1v17c-6.55-1.31-9.691-3.985-14-9-4.764-7.533-8.169-15.018-8-24z" fill="#ede9cd" transform="translate(294 392.5)"/><path d="m0 0c3.116 1.705 4.821 3.238 6.801 6.207.67.99.34 1.98 0 3-.531-.277-2.062-.554-2.61-.84-.706-.362-1.412-.724-2.14-1.097-.696-.36-1.392-.72-2.11-1.09-6.293-2.86-13.517-2.682-20.14-.973 1.003-2.737 1.586-3.796 4.246-5.109 5.112-1.654 10.848-1.939 15.953-.098z" fill="#788e61" transform="translate(273.199219 219.292969)"/></g><circle cx="275.5" cy="250" r="4.5" stroke-width=".9"/></svg>