<?xml version="1.0" encoding="UTF-8" standalone="no"?>
<!DOCTYPE svg PUBLIC "-//W3C//DTD SVG 1.1//EN" "http://www.w3.org/Graphics/SVG/1.1/DTD/svg11.dtd">
<svg width="100%" height="100%" viewBox="0 0 981 292" version="1.1" xmlns="http://www.w3.org/2000/svg" xmlns:xlink="http://www.w3.org/1999/xlink" xml:space="preserve" xmlns:serif="http://www.serif.com/" style="fill-rule:evenodd;clip-rule:evenodd;stroke-linejoin:round;stroke-miterlimit:2;">
    <g transform="matrix(0.515734,0,0,0.50519,-34.633866,-17.692042)">
        <ellipse cx="353" cy="326" rx="286" ry="289"/>
    </g>
    <g transform="matrix(0.450441,0,0,0.439822,-11.585338,1.51891)">
        <ellipse cx="353" cy="326" rx="286" ry="289" style="fill:rgb(188,172,208);"/>
    </g>
    <g transform="matrix(0.472756,0,0,0.466454,134.892285,-4.830671)">
        <path d="M-2,623C-113.135,613.023 -175.733,549.025 -168,541C-167.501,539.786 -166.002,535.571 -165.488,534.32C-148.697,493.999 -126.428,456.667 -99.945,422C-75.912,392.447 -75.912,392.447 -65.699,357.008C-66.045,354.696 -66.859,353.027 -68,351C-68.459,351.361 -68.918,351.722 -69.391,352.094C-70.004,352.558 -70.618,353.022 -71.25,353.5C-72.155,354.196 -72.155,354.196 -73.078,354.906C-75,356 -75,356 -79,356C-83.147,346.428 -85.381,337.254 -87,327C-89.97,328.65 -92.94,330.3 -96,332C-96.409,314.549 -95.641,299.607 -88.982,283.276C-87.609,279.887 -87,277.728 -87,274C-88.016,273.974 -89.032,273.948 -90.078,273.922C-103.601,273.429 -116.098,271.028 -125.969,261C-133.545,252.012 -135.545,241.5 -137.062,230.125C-137.356,227.939 -137.659,225.754 -137.973,223.57C-138.099,222.619 -138.225,221.668 -138.356,220.688C-139.317,216.678 -140.751,213.884 -144.149,211.479C-146,210 -146,210 -146.546,207.823C-146.577,206.59 -146.577,206.59 -146.609,205.332C-146.642,204.439 -146.674,203.547 -146.707,202.627C-146.721,201.698 -146.735,200.769 -146.75,199.812C-146.78,198.872 -146.809,197.932 -146.84,196.963C-146.911,194.642 -146.963,192.322 -147,190C-145.979,189.927 -145.979,189.927 -144.938,189.852C-139.134,189.404 -133.391,188.797 -127.625,188C-113.215,186.083 -98.524,185.753 -84,186C-83.196,184.391 -83.196,184.391 -82.375,182.75C-82.006,182.019 -81.638,181.288 -81.258,180.535C-80.378,178.761 -79.52,176.976 -78.68,175.184C-64.146,144.726 -36.053,124.461 -5.02,113.02C4.353,109.716 13.988,106.665 24,107L24,110C24.844,109.928 25.689,109.856 26.559,109.781C52.067,107.932 77.861,107.857 103,113L103,115C98.05,117.64 93.1,120.28 88,123C90.897,124.931 92.935,125.688 96.242,126.629C97.826,127.091 97.826,127.091 99.441,127.562C100.574,127.892 101.707,128.222 102.875,128.562C133.048,137.63 159.807,151.824 184,172C185.067,172.849 185.067,172.849 186.156,173.715C187.83,175.073 189.425,176.528 191,178L191,181C182.585,182.98 182.585,182.98 174,185C176.182,192.074 185.436,205.642 191,207.75C194.541,209.713 205.863,218.938 213,228C215.855,231.625 217.406,241.691 207,235C204.336,230.772 192.438,220.265 190,221C193.086,225.914 196.18,230.816 199.445,235.613C213.51,256.293 213.51,256.293 215,264L207,264C207.252,264.527 207.503,265.055 207.763,265.598C213.773,278.29 218.243,290.213 221,304C216.05,302.515 216.05,302.515 211,301C211.193,301.779 211.387,302.557 211.586,303.359C214.035,313.882 215.042,324.24 216,335C210.39,332.69 204.78,330.38 199,328C197.454,331.093 198.822,333.821 199.695,337.008C200.083,338.472 200.471,339.936 200.859,341.4C201.066,342.17 201.272,342.941 201.486,343.735C202.56,347.75 203.603,351.773 204.645,355.797C204.851,356.596 205.058,357.396 205.271,358.219C211.511,382.453 216.543,407.913 217,433C217.02,434.052 217.041,435.105 217.062,436.189C217.789,480.891 202.543,536.66 183,577C183.263,577 159.945,614.247 21.294,622.945C16.332,623.257 5.424,623.667 -2,623Z" style="fill:rgb(6,6,5);fill-rule:nonzero;"/>
    </g>
    <g transform="matrix(0.472756,0,0,0.466454,186.563083,95.537041)">
        <path d="M0,0C0.814,0.041 1.628,0.083 2.467,0.125C5.13,0.264 7.791,0.419 10.453,0.578C13.229,0.739 16.005,0.9 18.781,1.06C20.662,1.169 22.543,1.279 24.424,1.391C29.654,1.693 34.872,1.905 40.109,1.989C43.107,2.038 46.102,2.126 49.099,2.217C50.485,2.249 51.873,2.263 53.26,2.257C59.2,2.239 63.858,2.233 68.481,6.23C70.771,9.001 72.758,11.809 74.703,14.828C75.795,16.255 76.896,17.674 78.016,19.078C84.703,28.131 85.023,28.828 86.703,31.828C87.033,33.808 87.363,35.788 87.703,37.828C85.063,38.158 82.423,38.488 79.703,38.828C80.051,39.433 80.399,40.038 80.757,40.661C82.345,43.424 83.93,46.188 85.516,48.953C86.063,49.904 86.61,50.856 87.174,51.836C94.703,64.978 94.703,64.978 94.703,68.828C90.739,68.275 87.387,67.372 83.703,65.828C84.162,66.942 84.621,68.056 85.094,69.203C94.703,92.948 94.703,92.948 94.703,102.828C89.884,102.38 85.557,101.231 80.934,99.781C79.766,99.417 78.598,99.052 77.395,98.677C76.507,98.397 75.618,98.117 74.703,97.828C75.926,103.434 77.156,109.038 78.391,114.641C78.574,115.475 78.758,116.309 78.947,117.168C79.501,119.678 80.059,122.187 80.617,124.695C80.787,125.465 80.956,126.234 81.131,127.027C82.351,132.487 83.769,137.876 85.266,143.266C93.755,174.454 99.353,208.449 97.703,240.828C97.661,241.723 97.618,242.618 97.574,243.54C95.473,283.393 83.258,320.958 62.766,355.141C62.329,355.87 61.893,356.599 61.444,357.351C56.502,365.256 50.088,368.318 41.766,372.078C40.17,372.802 40.17,372.802 38.542,373.54C12.155,385.325 -14.776,392.43 -43.297,396.828C-44.566,397.029 -44.566,397.029 -45.861,397.235C-77.017,401.955 -125.659,404.147 -154.297,389.828C-153.709,386.503 -152.684,384.871 -150.359,382.453C-131.397,361.478 -116.271,333.831 -108.297,306.828C-108.069,306.067 -107.842,305.306 -107.607,304.521C-100.69,280.995 -99.718,258.856 -105.297,234.828C-105.301,235.424 -105.305,236.02 -105.309,236.635C-105.817,279.332 -120.571,319.182 -145.297,353.828C-146.025,354.852 -146.754,355.875 -147.504,356.93C-152.541,363.809 -158.001,370.275 -163.598,376.699C-165.905,379.352 -168.122,382.065 -170.297,384.828C-182.228,382.551 -193.144,377.511 -204.297,372.828C-205.62,372.288 -205.62,372.288 -206.971,371.736C-225.554,364.071 -241.875,352.259 -258.297,340.828C-258.939,340.388 -259.582,339.948 -260.244,339.495C-266.517,335.138 -266.517,335.138 -267.297,330.828C-266.758,328.031 -266.758,328.031 -265.672,325.078C-265.158,323.632 -265.158,323.632 -264.633,322.156C-260.798,312.603 -256.17,303.455 -251.547,294.266C-250.842,292.861 -250.138,291.457 -249.434,290.053C-247.723,286.643 -242.977,279.828 -242.297,279.828C-241.887,278.769 -241.887,278.769 -241.469,277.688C-238.367,270.119 -234.6,263.028 -229.938,256.316C-227.135,252.066 -224.709,247.602 -222.227,243.16C-220.353,239.926 -218.503,236.844 -216.297,233.828L-214.297,233.828C-214.049,233.106 -213.802,232.384 -213.547,231.641C-212.175,228.553 -210.419,226.45 -208.297,223.828C-207.61,222.673 -206.944,221.506 -206.297,220.328C-204.572,217.225 -202.696,214.467 -200.297,211.828L-198.297,211.828C-198.16,210.973 -198.16,210.973 -198.02,210.102C-197.114,207.254 -194.697,205.703 -193.734,203.453C-190.006,198.932 -187.057,194.194 -184.237,189.084C-182.143,185.291 -179.925,181.636 -177.547,178.016C-174.603,173.43 -172.208,168.931 -170.297,163.828C-169.924,162.841 -169.552,161.853 -169.168,160.836C-164.037,145.925 -165.132,131.396 -165.047,132.203C-164.753,133.23 -162.193,129.447 -160.945,128.052C-160.615,127.682 -160.376,126.55 -160.297,126.828C-159.939,128.08 -156.508,131.633 -155.297,132.828C-153.832,134.273 -153.832,134.273 -152.359,135.953C-146.565,141.961 -138.781,146.241 -131.297,149.828C-131.369,149.075 -131.441,148.322 -131.516,147.547C-132.296,138.615 -132.4,129.783 -132.297,120.828C-130.34,120.989 -130.34,120.989 -128.344,121.152C-116.188,122.032 -102.161,125.704 -93.297,116.828C-81.79,105.306 -90.073,87.157 -94.297,74.828C-96.561,71.523 -98.022,69.982 -101.547,68.016C-104.297,65.828 -91.637,66.148 -91.297,66.828C-89.1,67.762 -93.863,62.602 -91.609,63.391C-90.389,63.825 -89.168,64.259 -87.91,64.707C-72.878,69.371 -58.202,67.717 -44.297,60.828C-41.266,59.104 -38.801,57.247 -36.297,54.828C-35.624,54.206 -34.951,53.583 -34.258,52.941C-23.738,42.284 -21.375,28.973 -19.12,14.715C-18.939,13.626 -18.757,12.536 -18.57,11.414C-18.345,9.945 -18.345,9.945 -18.115,8.447C-16.858,4.421 -14.675,2.607 -11.065,0.567C-7.326,-0.431 -3.82,-0.238 0,0Z" style="fill:rgb(135,159,101);fill-rule:nonzero;"/>
    </g>
    <g transform="matrix(0.472756,0,0,0.466454,167.512477,50.210863)">
        <path d="M0,0L0,3C-2.406,4.789 -2.406,4.789 -5.5,6.625C-7.346,7.73 -9.183,8.849 -11,10L-11,11C-9.751,11.147 -8.502,11.294 -7.215,11.445C12.024,13.862 30.171,18.38 48,26C50.164,26.798 52.331,27.59 54.5,28.375C60.94,30.82 71.905,41.063 75,42C75,42.66 85.531,47.072 90,51C90.99,52.98 96.99,53.98 98,56L76,56L76,58C76.544,58.226 77.088,58.451 77.648,58.684C80.707,60.396 83.096,62.67 85.625,65.062C86.692,66.056 87.76,67.05 88.828,68.043C89.36,68.54 89.892,69.037 90.439,69.548C96.152,74.862 101.954,80.068 108,85C105.019,85.905 102.795,86.025 99.719,85.582C98.888,85.464 98.056,85.346 97.2,85.225C96.309,85.089 95.418,84.953 94.5,84.812C93.566,84.674 92.632,84.536 91.669,84.394C84.65,83.326 77.702,82.001 70.752,80.556C61.172,78.581 51.523,77.033 41.869,75.468C38.935,74.989 36.002,74.502 33.07,74.012C26.841,72.972 20.609,71.947 14.375,70.938C13.321,70.764 12.266,70.591 11.18,70.412C-0.783,68.48 -12.458,67.763 -24.562,67.75C-25.695,67.748 -25.695,67.748 -26.851,67.746C-41.02,67.751 -54.399,67.305 -67,74C-73.656,77.537 -75.038,80.59 -75.038,80.59C-75.038,80.59 -76.793,80.706 -77.277,80.73C-86.084,81.175 -85.599,81.257 -90.207,81.266C-90.891,81.268 -91.575,81.269 -92.28,81.271C-93.724,81.273 -95.167,81.269 -96.61,81.261C-98.795,81.25 -100.98,81.261 -103.166,81.273C-112.422,81.283 -119.912,80.932 -128,76C-132.902,74.07 -137.763,72.671 -143,72C-142.283,68.768 -141.187,65.813 -139.938,62.75C-139.575,61.858 -139.213,60.966 -138.84,60.047C-138.563,59.371 -138.286,58.696 -138,58L-136,58C-135.894,57.447 -135.789,56.894 -135.68,56.324C-134.862,53.528 -133.612,51.316 -132.125,48.812C-131.612,47.932 -131.099,47.052 -130.57,46.145C-129,44 -129,44 -126,43C-125.559,41.871 -123.559,42.871 -123.109,41.719C-121.739,38.36 -121.987,35.856 -119.25,33.5C-118.358,32.728 -117.466,31.956 -116.547,31.16C-115.706,30.447 -114.866,29.734 -114,29C-113.366,28.442 -112.732,27.884 -112.078,27.309C-108.27,24 -108.27,24 -106,24C-106,23.34 -97.743,16.289 -92,15L-92,13C-86.375,10 -86.375,10 -83,10L-83,14L-85,14C-85.66,15.65 -86.32,17.3 -87,19C-85.35,18.34 -83.7,17.68 -82,17L-82,15C-56.747,1.037 -28.198,-0.467 0,0Z" style="fill:rgb(134,159,100);fill-rule:nonzero;"/>
    </g>
    <g transform="matrix(0.472756,0,0,0.466454,184.118046,110.23762)">
        <path d="M0,0C0.925,0.003 1.85,0.007 2.803,0.01C11.84,0.153 21.346,0.789 28.875,6.312L28.875,9.312C24.998,10.505 21.959,11.312 17.875,11.312L17.875,13.312C18.611,13.434 19.347,13.555 20.105,13.68C27.442,15.356 35.114,20.514 39.875,26.312L39.875,30.312C38.736,30.403 38.736,30.403 37.574,30.496C36.58,30.58 35.586,30.664 34.562,30.75C33.576,30.831 32.59,30.912 31.574,30.996C28.781,31.231 28.781,31.231 25.875,32.312C26.7,32.787 27.525,33.261 28.375,33.75C35.046,38.218 40.508,44.621 42.875,52.312C43.062,55.25 43.062,55.25 42.875,57.312C41.596,57.148 40.318,56.983 39,56.812C33.947,56.242 28.954,56.217 23.875,56.312C24.25,56.762 24.625,57.212 25.012,57.676C32.451,67.027 34.774,74.203 35.875,86.312C25.315,85.983 14.755,85.653 3.875,85.312C8.911,93.504 8.911,93.504 12.25,96.688C12.786,97.224 13.322,97.76 13.875,98.312L13.875,101.312C2.756,105.803 -9.691,105.579 -21.125,102.312C-20.692,103.072 -20.259,103.831 -19.812,104.613C-19.256,105.607 -18.699,106.601 -18.125,107.625C-17.568,108.611 -17.011,109.597 -16.438,110.613C-15.125,113.312 -15.125,113.312 -15.125,116.312C-30.481,117.578 -41.703,111.914 -53.125,102.312L-53.125,112.312C-61.954,112.125 -67.436,106.266 -73.312,100.188C-82.022,89.949 -84.39,78.415 -85.574,65.43C-85.656,64.556 -85.737,63.683 -85.821,62.783C-85.978,61.058 -86.122,59.332 -86.253,57.605C-87.11,47.469 -88.11,47.469 -93.387,39.184C-94.187,38.711 -99.974,34.881 -99.711,32.102C-99.688,29.875 -99.688,29.875 -99.125,26.312C-97.688,28.688 -88.691,31.086 -86.438,31.875C-85.217,32.309 -83.996,32.744 -82.738,33.191C-67.706,37.856 -53.03,36.202 -39.125,29.312C-36.095,27.589 -33.623,25.737 -31.125,23.312C-30.452,22.667 -29.779,22.021 -29.086,21.355C-24.255,16.335 -21.422,11.277 -18.84,4.816C-16.913,2.004 -15.519,1.295 -12.21,0.584C-8.138,0.054 -4.103,-0.025 0,0Z" style="fill:rgb(239,234,207);fill-rule:nonzero;"/>
    </g>
    <g transform="matrix(0.472756,0,0,0.466454,162.441426,88.67507)">
        <path d="M0,0C1.976,1.447 12.383,7.053 15.754,18.961C19.364,28.53 18.959,39.733 14.984,49.113C9.312,60.053 0.604,67.333 -11.066,71.121C-21.968,73.186 -32.932,71.939 -42.477,66.219C-51.412,59.977 -58.208,51.413 -60.273,40.539C-60.916,30.032 -60.178,20.985 -55.273,11.539C-54.613,11.539 -49.932,-1.519 -31.484,-5.039C-20.668,-7.103 -9.341,-6.003 0,0Z" style="fill:rgb(251,108,19);fill-rule:nonzero;"/>
    </g>
    <g transform="matrix(0.472756,0,0,0.466454,99.435554,88.460064)">
        <path d="M0,0C0,0.66 -0.606,-0.098 0,0C5.028,1.611 9.878,8.978 12.34,13.414C16.212,22.537 16.788,33.936 13.562,43.375C8.995,52.878 1.728,59.225 -8,63C-16.695,65.898 -27.222,64.737 -35.375,60.875C-35.911,60.586 -40,58 -40,58C-48.347,49.776 -53.315,41.822 -53.5,30.062C-53.328,19.099 -50.038,12.124 -42.516,4.203C-30.526,-6.297 -13.926,-6.609 0,0Z" style="fill:rgb(4,164,228);fill-rule:nonzero;"/>
    </g>
    <g transform="matrix(0.472756,0,0,0.466454,110.308952,114.115016)">
        <path d="M0,0L9,0L9,2C9.864,2.367 9.864,2.367 10.746,2.742C13.36,4.201 14.995,5.968 17.062,8.125C20.54,11.272 22.654,12.556 27.375,12.562C29.254,12.425 31.13,12.236 33,12C34.999,11.764 36.999,11.534 39,11.312C39.887,11.185 40.774,11.057 41.688,10.926C44,11 44,11 45.75,12.293C49.089,16.853 48.477,22.634 48,28C45.385,39.859 38.015,48.498 28.98,56.18C19.89,64.535 20.667,77.998 20.148,89.414C20.075,91.189 20.075,91.189 20,93C14.756,88.719 10.31,84.214 6,79C5.192,78.093 5.192,78.093 4.367,77.168C0.153,72.138 -1.525,66.956 -3.238,60.66C-3.739,58.1 -3.739,58.1 -5,57C-7.177,49.395 -7.384,41.734 -7.375,33.875C-7.376,32.692 -7.376,31.508 -7.377,30.289C-7.256,20.609 -6.404,10.807 -2,2L0,2L0,0Z" style="fill:rgb(53,53,53);fill-rule:nonzero;"/>
    </g>
    <g transform="matrix(0.472756,0,0,0.466454,103.690362,118.779553)">
        <path d="M0,0C-0.072,0.839 -0.144,1.678 -0.219,2.543C-0.818,10.306 -1.108,18.026 -1.125,25.812C-1.13,26.671 -1.134,27.529 -1.139,28.413C-1.107,42.022 0.676,53.734 7.695,65.59C8.877,67.773 13.485,74.495 15,77C20.069,91.672 17.394,106.588 10.927,120.271C2.08,138.385 -9.409,154.577 -21,171C-31.932,186.519 -42.649,202.14 -52.831,218.163C-53.64,219.435 -54.453,220.705 -55.267,221.974C-60.699,230.442 -75.199,256.528 -76.75,259.441C-77.276,260.437 -77.802,261.433 -78.344,262.459C-79.164,263.995 -79.164,263.995 -80,265.562C-81.086,267.604 -82.169,269.647 -83.25,271.691C-83.73,272.591 -86.959,282.082 -87,283C-87.125,285.812 -91.125,288.812 -92,281C-93.205,274.333 -82.604,256.778 -76.188,244.188C-75.487,242.802 -74.787,241.416 -74.088,240.029C-72.398,236.683 -59.303,213.2 -54.641,206.488C-51.838,202.238 -49.413,197.774 -46.93,193.332C-45.056,190.097 -43.206,187.016 -41,184C-40.34,184 -27.399,164.639 -25,162C-24.34,161 -19.868,155.359 -18.438,153.625C-14.709,149.104 -11.761,144.366 -8.94,139.256C-6.846,135.463 -4.628,131.808 -2.25,128.188C0.693,123.602 3.089,119.102 5,114C5.373,113.013 5.745,112.025 6.129,111.008C11.26,96.096 8.829,84.283 3,70C-0.628,71.866 -4.444,76.438 -5,77C-5.468,77.473 -7.462,79 -8,77C-11.179,69.793 -11.131,62.864 -11.062,55.125C-11.058,54.15 -11.053,53.176 -11.049,52.172C-11.037,49.781 -11.019,47.391 -11,45C-13.97,45.99 -16.94,46.98 -20,48C-19.392,36.756 -16.335,26.641 -12.562,16.09C-11.935,13.759 -11.876,11.659 -11.812,9.25C-11.586,6.373 -11.369,5.357 -9.27,3.324C-6.024,1.226 -3.916,0 0,0Z" style="fill:rgb(228,224,198);fill-rule:nonzero;"/>
    </g>
    <g transform="matrix(0.472756,0,0,0.466454,150.02049,190.146965)">
        <path d="M0,0C4.256,1.419 5.352,4.555 7.5,8.25C13.855,18.789 21.222,28.395 31,36C30.67,35.34 30.34,34.68 30,34C28.713,30.139 28.862,27.058 29,23C33.946,23.545 37.863,25.147 42.188,27.5C42.842,27.855 43.497,28.211 44.172,28.577C54.361,34.276 62.218,41.515 69,51C69.494,51.668 69.987,52.335 70.496,53.023C77.05,62.553 77.444,72.743 77,84L74,84C73.671,83.368 73.343,82.737 73.004,82.086C64.008,65.167 53.078,49.999 40,36C39.67,41.94 39.34,47.88 39,54C31.123,52.875 31.123,52.875 28.578,50.82C28.028,50.386 27.477,49.951 26.91,49.504C26.362,49.049 25.814,48.594 25.25,48.125C24.405,47.454 24.405,47.454 23.543,46.77C17.934,42.274 13.424,37.141 13,37C5.139,26.689 -0.557,14.059 -1,1C-0.67,0.67 -0.34,0.34 0,0Z" style="fill:rgb(238,234,206);fill-rule:nonzero;"/>
    </g>
    <g transform="matrix(0.472756,0,0,0.466454,167.512477,50.210863)">
        <path d="M0,0L0,3C-2.757,5.67 -4.747,6.372 -8.535,6.406C-9.858,6.436 -9.858,6.436 -11.207,6.466C-12.149,6.477 -13.092,6.488 -14.062,6.5C-40.809,7.319 -69.489,12.914 -90.984,29.75C-93,31 -92,31 -96,31L-96,26C-110.19,36.43 -121.502,46.618 -130.59,61.98C-131.055,62.647 -131.521,63.313 -132,64C-132.66,64 -136,70.64 -137,73C-139.31,73 -140.62,72 -143,72C-142.283,68.768 -141.187,65.813 -139.938,62.75C-139.575,61.858 -139.213,60.966 -138.84,60.047C-138.563,59.371 -138.286,58.696 -138,58C-137.34,58 -133.612,51.316 -132.125,48.812C-131.612,47.932 -131.099,47.052 -130.57,46.145C-129,44 -121.987,35.856 -119.25,33.5C-118.358,32.728 -117.466,31.956 -116.547,31.16C-115.706,30.447 -114.866,29.734 -114,29C-113.366,28.442 -112.732,27.884 -112.078,27.309C-108.27,24 -100,17.68 -92,13C-86.375,10 -86.375,10 -83,10L-83,14C-82.66,15 -83,14.68 -82,15C-56.747,1.037 -28.198,-0.467 0,0Z" style="fill:rgb(224,221,194);fill-rule:nonzero;"/>
    </g>
    <g transform="matrix(0.472756,0,0,0.466454,123.073375,103.386581)">
        <path d="M0,0C1.513,0.637 10.304,5.532 12.688,12.562C13.121,13.697 13.554,14.831 14,16C14.392,16.701 14.784,17.402 15.188,18.125C22.639,31.459 3.358,28.841 -2,28C-4.325,26.372 -6.046,24.976 -8,23C-8.949,22.113 -9.898,21.226 -10.875,20.312C-13,18 -20.425,15.01 -28,14C-28,8.335 -27.92,6.532 -25,2C-17.788,-3.363 -8.121,-3.42 0,0Z" style="fill:rgb(225,220,195);fill-rule:nonzero;"/>
    </g>
    <g transform="matrix(0.472756,0,0,0.466454,159.475618,55.341853)">
        <path d="M5,0C24.948,0.323 39.391,4.988 58,12C58.815,12.303 59.629,12.606 60.468,12.918C70.743,16.775 80.557,21.058 90.129,26.434C92.946,28.08 109.629,37.009 114,41C115,41.99 116,42.98 116,45C110.527,45.444 106.145,42.301 102.148,40.234C101.049,39.674 99.896,39.208 98.816,38.535C41.681,2.946 4.628,7.634 -2,7C-1.125,2.25 3.875,2.25 5,0Z" style="fill:rgb(227,224,196);fill-rule:nonzero;"/>
    </g>
    <g transform="matrix(0.472756,0,0,0.466454,136.310554,131.840256)">
        <path d="M0,0C1.32,0.33 2.64,0.66 4,1C5.684,7.589 6.311,13.587 6.25,20.375C6.258,21.263 6.265,22.151 6.273,23.066C6.271,23.918 6.268,24.771 6.266,25.648C6.263,26.413 6.261,27.178 6.259,27.966C6,30 6,30 4,33C-4.301,36.505 -14.296,35.619 -23,34C-23.083,30.015 -22.909,27.977 -20.141,25C-18.553,23.636 -16.952,22.288 -15.34,20.953C-8.412,15.17 -4.341,7.822 0,0Z" style="fill:rgb(52,52,52);fill-rule:nonzero;"/>
    </g>
    <g transform="matrix(0.472756,0,0,0.466454,209.115041,198.076677)">
        <path d="M0,0L4,0C4.74,12.839 2.894,23.771 -1,36C-1.299,36.99 -1.598,37.98 -1.906,39C-5.109,48.252 -11.819,57.546 -20,63L-23,63C-22.133,56.644 -21.07,50.324 -20,44C-18.515,43.505 -18.515,43.505 -17,43C-15.985,41.314 -15.985,41.314 -15,39C-14.346,37.825 -13.682,36.655 -13.012,35.488C-6.627,24.109 -2.393,12.861 0,0Z" style="fill:rgb(236,232,204);fill-rule:nonzero;"/>
    </g>
    <g transform="matrix(0.472756,0,0,0.466454,219.988439,180.351438)">
        <path d="M0,0C4.101,4.101 4.124,10.186 4.23,15.715C4.227,17.789 4.212,19.863 4.188,21.938C4.187,22.971 4.186,24.004 4.186,25.068C4.102,39.785 2.312,53.108 -7.5,64.785C-9,66 -9,66 -12,66C-12.745,59.627 -13.103,53.417 -13,47L-11,47C-5.255,33.196 -2.204,19.302 -1.246,4.398C-1,2 -1,2 0,0Z" style="fill:rgb(237,233,206);fill-rule:nonzero;"/>
    </g>
    <g transform="matrix(0.472756,0,0,0.466454,110.308952,114.115016)">
        <path d="M-1,0C0,-0.66 5.28,0 8,0C7.402,4.465 6.222,8.258 4.562,12.438C-2.017,30.503 -1.566,50.713 4,69L4,73C2.137,72.41 2.137,72.41 0,71C-1.23,67.996 -3.443,62.441 -5,57C-7.177,49.395 -7.384,41.734 -7.375,33.875C-7.376,32.692 -7.376,31.508 -7.377,30.289C-7.256,20.609 -6.404,10.807 -2,2C-1.713,1.426 -1.68,0 -1,0Z" style="fill:rgb(222,218,194);fill-rule:nonzero;"/>
    </g>
    <g transform="matrix(0.472756,0,0,0.466454,133.001259,176.619808)">
        <path d="M0,0C3.575,1.192 3.861,1.994 5.75,5.125C8.893,10.043 18.66,17.68 19,17C19.99,17 20.98,16 22,16L22,33C15.45,31.69 12.309,29.015 8,24C3.236,16.467 -0.169,8.982 0,0Z" style="fill:rgb(237,233,205);fill-rule:nonzero;"/>
    </g>
    <g transform="matrix(0.472756,0,0,0.466454,123.167557,95.826752)">
        <path d="M0,0C3.116,1.705 4.821,3.238 6.801,6.207C7.471,7.197 7.141,8.187 6.801,9.207C6.27,8.93 4.739,8.653 4.191,8.367C3.485,8.005 2.779,7.643 2.051,7.27C1.355,6.91 0.659,6.55 -0.059,6.18C-6.352,3.32 -13.576,3.498 -20.199,5.207C-19.196,2.47 -18.613,1.411 -15.953,0.098C-10.841,-1.556 -5.105,-1.841 0,0Z" style="fill:rgb(120,142,97);fill-rule:nonzero;"/>
    </g>
    <g transform="matrix(0.425481,0,0,0.419808,12.779304,8.136741)">
        <circle cx="262" cy="243" r="5"/>
    </g>
    <g transform="matrix(0.690656,0,0,0.690656,300.498668,-83.324873)">
        <g transform="matrix(203.822768,0,0,203.822768,991.158146,398)">
        </g>
        <text x="23px" y="398px" style="font-family:'Zed-Sans-Bold', 'Zed Sans';font-weight:700;font-size:203.823px;fill:rgb(188,172,208);">Teleportal</text>
    </g>
</svg>
